<?xml version="1.0" encoding="UTF-8" standalone="no"?>
<!-- Created with Inkscape (http://www.inkscape.org/) -->

<svg
   xmlns:dc="http://purl.org/dc/elements/1.1/"
   xmlns:cc="http://creativecommons.org/ns#"
   xmlns:rdf="http://www.w3.org/1999/02/22-rdf-syntax-ns#"
   xmlns:svg="http://www.w3.org/2000/svg"
   xmlns="http://www.w3.org/2000/svg"
   xmlns:sodipodi="http://sodipodi.sourceforge.net/DTD/sodipodi-0.dtd"
   xmlns:inkscape="http://www.inkscape.org/namespaces/inkscape"
   id="svg2"
   version="1.1"
   inkscape:version="0.48.4 r9939"
   width="5000"
   height="5000"
   xml:space="preserve"
   sodipodi:docname="logo.svg"><metadata
     id="metadata8"><rdf:RDF><cc:Work
         rdf:about=""><dc:format>image/svg+xml</dc:format><dc:type
           rdf:resource="http://purl.org/dc/dcmitype/StillImage" /><dc:title /></cc:Work></rdf:RDF></metadata><defs
     id="defs6"><clipPath
       clipPathUnits="userSpaceOnUse"
       id="clipPath16"><path
         d="m 0,4000 4000,0 L 4000,0 0,0 0,4000 z"
         id="path18"
         inkscape:connector-curvature="0" /></clipPath></defs><sodipodi:namedview
     pagecolor="#ffffff"
     bordercolor="#666666"
     borderopacity="1"
     objecttolerance="10"
     gridtolerance="10"
     guidetolerance="10"
     inkscape:pageopacity="0"
     inkscape:pageshadow="2"
     inkscape:window-width="1920"
     inkscape:window-height="1050"
     id="namedview4"
     showgrid="false"
     inkscape:zoom="0.12409724"
     inkscape:cx="1790.9517"
     inkscape:cy="2817.7839"
     inkscape:window-x="0"
     inkscape:window-y="30"
     inkscape:window-maximized="1"
     inkscape:current-layer="g10" /><g
     id="g10"
     inkscape:groupmode="layer"
     inkscape:label="logo tamaño grande"
     transform="matrix(1.25,0,0,-1.25,0,5000)"><path
       sodipodi:type="arc"
       style="opacity:1;fill:#fbcc3a;fill-opacity:1;stroke:none"
       id="path3064"
       sodipodi:cx="2489.9829"
       sodipodi:cy="2505.988"
       sodipodi:rx="2498.041"
       sodipodi:ry="2502.0701"
       d="m 4988.0239,2505.988 a 2498.041,2502.0701 0 1 1 -4996.0820055,0 2498.041,2502.0701 0 1 1 4996.0820055,0 z"
       transform="matrix(0.73657718,0,0,-0.73539108,165.93542,3842.8812)" /><g
       id="g12"
       transform="matrix(0.98419964,0,0,0.98494418,47.809144,48.090786)"><g
         id="g14"
         clip-path="url(#clipPath16)"><g
           id="g20"
           transform="translate(1797.3081,3179.5518)" /><g
           id="g24"
           transform="translate(645.2798,2484.5942)" /><g
           id="g28"
           transform="translate(1989.3599,1200.9453)" /><g
           id="g32"
           transform="translate(1967.3335,962.21)" /><g
           id="g36"
           transform="translate(2330.3247,1745.2324)" /><g
           id="g40"
           transform="translate(2470.146,1436.4668)" /><g
           id="g44"
           transform="translate(1948.6802,1682.9746)" /><g
           id="g48"
           transform="translate(1933.5879,1712.2432)" /><g
           id="g52"
           transform="translate(1475.7271,1584.2461)" /><g
           id="g56"
           transform="translate(2517.8823,2480.8574)" /><g
           id="g60"
           transform="translate(2756.0073,2025.5835)" /><g
           id="g64"
           transform="translate(2303.2349,1873.5215)" /><g
           id="g68"
           transform="translate(2321.6333,1898.9912)" /><g
           id="g72"
           transform="translate(1800.7417,2110.2788)" /><g
           id="g76"
           transform="translate(1909.4868,1850.4111)" /><g
           id="g80"
           transform="translate(1884.2915,690.0195)"><path
             d="m 0,0 c 21.369,-15.664 46.287,-23.424 70.76,-32.337 9.687,-3.509 10.375,0.052 10.205,8.13 -0.963,46.168 -1.801,92.39 -2.31,138.61 C 78.062,167.06 76.759,219.73 83.042,272.19 89.307,324.331 68.184,575.243 61.729,624.188 52.137,696.77 39.631,768.979 28.312,841.35 18.04,906.908 7.728,972.493 -2.554,1038.074 c 9.858,3.408 19.545,2.311 28.597,-2.3 7.98,-4.037 15.527,-8.987 23.253,-13.55 -0.296,-8.989 3.933,-15.273 11.585,-19.518 1.165,-3.254 2.332,-6.497 3.508,-9.751 -1.653,-15.459 0.34,-30.863 1.442,-46.168 2.883,-39.932 9.752,-79.025 28.923,-114.891 2.545,-4.378 5.089,-8.73 7.61,-13.081 -7.683,-12.575 -10.323,-26.358 -8.712,-40.768 2.577,-22.979 5.321,-45.962 8.83,-68.808 10.004,-64.875 18.284,-129.803 13.565,-195.783 -1.885,-26.099 10.684,-85.521 11.289,-94.801 2.968,-45.744 6.476,-91.495 5.109,-137.425 -0.944,-32.57 -0.521,-65.14 0.943,-97.71 3.222,-72.316 8.862,-144.632 -0.784,-216.949 -2.883,-21.283 6.814,-30.344 27.46,-25.267 47.591,11.796 90.452,33.746 129.912,62.575 3.456,2.565 -26.306,128.575 -22.322,163.838 6.604,58.775 13.366,117.493 19.385,176.317 5.3,51.935 7.389,104.235 18.05,155.585 8.682,41.93 18.77,83.742 22.618,126.403 7.654,84.998 21.178,169.058 35.114,253.165 11.322,68.416 24.101,136.646 27.717,206.159 1.081,20.726 4.981,41.087 23.115,55.077 26.488,-22.428 40.712,-49.524 32.38,-85.21 -5.394,-28.14 -11.106,-56.228 -16.195,-84.372 C 416.537,897.003 404.793,823.013 402.07,747.782 400.288,698.523 396.41,649.24 385.408,601.078 368.27,526.06 357.215,450.388 353.697,373.536 c -3.403,-74.934 -6.445,-149.926 -22.003,-223.69 -2.47,-11.658 8.873,-87.647 18.453,-95.449 14.999,11.999 25.499,17.999 47.998,32.999 12.422,-0.288 26.999,23.999 41.998,38.998 19.499,15 25.89,26.674 26.907,57.962 0.213,6.424 0,12.868 0.054,19.286 0.105,29.188 17.805,56.094 17.964,85.284 0.362,55.708 10.367,56.293 6,112 -3.17,39.905 2.499,132.748 -4,172 -5.498,33.541 -6,50 0.417,64.993 17.404,3.063 25.786,11.214 28.141,27.59 11.532,5.685 18.452,15.744 25.47,25.967 7.366,10.688 12.05,23.528 23.688,30.969 12.58,3.197 20.699,10.324 21.123,24.16 l -0.053,-0.158 c 16.873,16.98 33.713,33.985 50.598,50.99 19.831,19.938 36.101,42.025 45.407,69.095 7.493,21.776 72.92,102.321 87.302,111.176 57.86,-24.996 104.601,-65.792 151.288,-106.646 -76.978,-86.412 -154.17,-172.67 -230.79,-259.422 -18.94,-21.463 -32.538,-47.404 -53.811,-67.108 -6.295,-5.791 -12.791,-11.525 -19.809,-16.348 -23.688,-16.301 -36.523,-49.708 -25.057,-76.301 20.415,-47.377 17.977,-94.458 2.757,-141.861 -11.975,-37.207 -20.88,-74.727 -24.631,-113.847 -2.778,-29.03 -16.949,-55.497 -26.593,-82.927 -16.714,-47.642 -35.274,-94.646 -54.393,-141.42 -8.596,-21.092 -23.116,-34.605 -44.282,-41.421 -26.52,-8.436 -52.667,-17.085 -77.139,-31.128 -19.449,-11.14 -42.342,-13.206 -64.676,-14.775 -70.947,-4.929 -141.537,-13.97 -212.823,-14.754 -85.503,-0.943 -165.533,17.711 -240.086,59.979 -31.659,17.944 -64.356,33.927 -96.928,50.197 -20.158,10.068 -14.498,184.208 -1.494,203.016 16.642,24.107 21.633,52.826 28.512,80.652 3.486,14.149 6.963,28.299 10.948,42.262 6.582,23.032 12.453,223.43 4.378,275.333 -2.651,16.926 -4.707,33.932 -6.603,50.965 -5.109,45.75 -29.995,72.422 -75.189,79.862 -9.284,1.548 -18.707,2.152 -28.076,3.196 1.769,15.983 9.93,28.981 19.66,41.139 9.349,11.739 18.76,23.424 26.541,36.264 3.538,-1.521 7.122,-2.883 10.588,-4.557 42.883,-20.593 86.019,-41.033 132.665,-51.357 37.149,-8.178 61.21,-25.782 60.796,-66.921 -0.021,-0.838 0.391,-1.679 0.509,-2.517 5.945,-43.678 15.973,-86.831 17.074,-131.167 0.688,-27.563 -5.257,-54.42 -7.25,-81.617 -2.352,-32.417 -1.462,-65.167 -0.403,-97.71 1.505,-45.851 2.534,-91.734 -5.946,-136.986 -4.918,-26.2 -9.601,-52.088 -8.564,-78.925 0.996,-24.938 -1.727,-49.602 -9.876,-73.471 -3.192,-9.326 -5.354,-18.866 -5.513,-28.892 -0.169,-9.931 4.261,-15.75 13.98,-16.429"
             style="fill:#4c432f;fill-opacity:1;fill-rule:evenodd;stroke:none"
             id="path82"
             inkscape:connector-curvature="0" /></g><g
           id="g84"
           transform="translate(1475.7271,1584.2461)"><path
             d="m 0,0 c 9.041,-15.093 5.648,-29.607 -3.031,-43.232 -8.564,-13.366 -14.68,-27.589 -19.343,-42.708 -3.656,-11.873 -3.274,-22.539 4.982,-32.232 -10.684,-3.302 -18.03,2.936 -25.119,9.173 -8.999,7.912 -17.404,16.296 -29.614,19.598 -7.707,2.046 -37.658,27.535 -43.582,34.483 -15.537,18.288 -31.331,36.338 -46.127,55.184 -14.287,18.182 -22.907,28.362 -31.907,50.861 -5.245,13.114 -3.378,21.534 -13.499,29.998 -8.194,6.862 -13.376,27.408 -21.78,34.011 -1.167,1.938 -30.481,181.58 -42.3,254.628 -6.02,37.196 -10.472,74.546 -10.43,112.357 0.118,108.411 0.106,216.837 0,325.248 -0.021,39.825 -0.412,79.651 -0.655,119.482 41.059,37.01 82.405,73.507 117.943,116.321 26.455,31.892 61.347,53.875 100.561,66.895 56.492,18.787 111.479,41.479 167.314,61.93 51.85,19.008 105.184,29.973 160.447,32.793 51.774,2.633 103.476,6.799 155.305,8.177 82.851,2.21 163.932,-10.705 244.526,-27.96 98.675,-21.118 195.835,-47.478 285.397,-95.072 117.274,-62.31 228.871,-133.265 324.801,-226.493 17.89,-17.413 32.802,-36.226 35.347,-62.22 0.965,-13.858 -6.941,-22.937 -16.586,-31.256 -5.142,-4.457 -2.961,-20.829 -7.464,-25.874 -12.032,-13.392 -22.774,-16.983 -17.848,-34.561 9.011,-32.205 -3.699,-60.238 -33.387,-75.082 -2.138,16.152 -5.859,31.95 -12.209,46.963 -24.493,58.379 -60.371,109.921 -98.357,159.926 -20.647,27.134 -48.001,45.883 -81.23,55.273 -4.769,7.611 -5.288,14.818 1.049,22.104 2.458,2.788 3.826,6.614 5.236,10.139 5.3,13.143 0.89,21.213 -13.3,21.738 -19.609,0.704 -39.26,-0.106 -58.856,-0.255 -43.657,33.514 -90.451,61.945 -139.863,85.92 -103.401,50.138 -212.508,81.33 -326.446,95.22 -91.923,11.188 -183.18,7.467 -272.475,-18.828 -33.853,-9.969 -205.82,-83.35 -223.371,-96.906 -22.978,-17.726 -42.321,-39.174 -52.846,-66.741 -5.714,-14.96 -91.395,-147.584 -95.359,-168.73 -4.005,-21.419 -7.068,-42.982 -15.113,-63.577 -26.54,-67.864 -36.714,-138.844 -38.103,-211.256 -1.081,-56.662 2.767,-113.111 9.983,-169.264 10.27,-79.863 32.56,-155.852 76.058,-224.447 C -73.97,68.702 -41.293,30.397 0,0"
             style="fill:#4c432f;fill-opacity:1;fill-rule:evenodd;stroke:none"
             id="path86"
             inkscape:connector-curvature="0" /></g><g
           id="g88"
           transform="translate(2886.8091,1677.707)"><path
             d="m 0,0 c -25.046,8.468 -46.382,23.508 -67.388,38.913 -23.477,17.187 -46.541,34.951 -69.753,52.46 11.585,26.619 21.411,53.922 27.981,82.221 14.076,60.683 11.215,119.375 -21.642,174.282 49.943,39.672 82.693,93.017 116.184,145.803 9.381,14.738 18.125,29.958 29.87,43.064 C 31.912,482.663 42.925,427.32 51.436,371.469 57.274,332.953 62.882,294.33 63.983,255.37 66.083,181.665 47.641,112.072 19.701,44.627 13.47,29.587 6.603,14.86 0,0"
             style="fill:#4c432f;fill-opacity:1;fill-rule:evenodd;stroke:none"
             id="path90"
             inkscape:connector-curvature="0" /></g><g
           id="g92"
           transform="translate(1279.3735,2768.8711)"><path
             d="m 0,0 c -15.613,-0.418 -26.191,6.842 -34.85,16.73 -19.808,22.628 -35.718,48.163 -52.295,73.106 -68.607,103.133 -140.583,203.88 -213.239,304.141 -15.336,21.16 -33.068,40.498 -52.728,57.896 -8.436,7.451 -15.75,15.733 -18.104,27.355 -3.232,15.85 4.748,26.582 20.572,24.155 37.945,-5.84 71.617,-17.578 95.878,-52.152 C -172.794,334.432 -88.661,219.158 -5.734,103.026 6.92,85.299 18.76,66.741 28.754,47.43 41.388,23.031 25.872,-0.079 0,0"
             style="fill:#4c432f;fill-opacity:1;fill-rule:evenodd;stroke:none"
             id="path94"
             inkscape:connector-curvature="0" /></g><g
           id="g96"
           transform="translate(645.2798,2484.5942)"><path
             d="m 0,0 c -13.063,38.568 -28.798,76.417 -33.132,117.424 -0.801,7.557 -0.536,15.247 -0.759,22.888 115.354,-68.701 239.292,-117.557 366.659,-158.42 0.052,-28.798 -14.788,-50.085 -34.617,-68.899 -28.532,7.51 -57.733,11.542 -86.789,16.312 -43.497,7.138 -87.086,14.737 -125.85,36.959 C 58.447,-18.251 29.295,-9.201 0,0"
             style="fill:#4c432f;fill-opacity:1;fill-rule:evenodd;stroke:none"
             id="path98"
             inkscape:connector-curvature="0" /></g><g
           id="g100"
           transform="translate(3011.0581,1296.9102)"><path
             d="m 0,0 c 16.195,-0.205 31.755,-4.239 45.458,-12.209 67.526,-39.248 140.553,-66.995 210.379,-101.347 28.488,-14.016 55.994,-29.714 81.6,-48.58 7.387,-5.447 16.196,-7.678 24.313,-11.426 7.07,-3.22 11.944,-7.646 11.585,-16.528 -0.997,-26.073 -32.836,-53.795 -58.357,-49.921 -6.233,0.943 -12.496,3.201 -18.157,6.005 -88.352,43.571 -174.404,91.366 -260.19,139.629 -20.721,11.633 -39.036,26.465 -51.829,47.032 -3.138,5.056 -5.946,10.456 -8.067,16.01 C -31.731,-9.22 -23.424,1.787 0,0"
             style="fill:#4c432f;fill-opacity:1;fill-rule:evenodd;stroke:none"
             id="path102"
             inkscape:connector-curvature="0" /></g><g
           id="g104"
           transform="translate(2530.9302,3293.7168)"><path
             d="m 0,0 c -1.051,-3.302 -1.94,-8.49 -4.133,-13.052 -41.252,-85.263 -66.032,-176.276 -93.546,-266.371 -7.335,-24.119 -14.204,-48.474 -24.526,-71.622 -9.115,-20.397 -22.321,-37.445 -40.139,-50.975 -15.304,-11.612 -21.283,-12.539 -31.965,-4.405 -17.32,13.207 -21.751,25.13 -14.52,41.739 11.425,26.338 22.119,52.957 31.647,80.038 28.044,79.56 48.978,161.43 77.669,240.785 5.819,16.089 12.051,32.045 18.494,47.923 4.304,10.598 43.763,74.769 55.761,72.501 13.578,-2.57 21.125,-2.199 34.85,-2.003 C 16.979,58.453 -0.308,12.236 0,0"
             style="fill:#4c432f;fill-opacity:1;fill-rule:evenodd;stroke:none"
             id="path106"
             inkscape:connector-curvature="0" /></g><g
           id="g108"
           transform="translate(706.7803,1801.3584)"><path
             d="m 0,0 c 22.034,-7.075 32.59,-3.513 48.563,16.036 10.074,12.364 18.04,27.197 35.555,31.076 19.088,1.675 19.299,1.834 22.495,16.614 9.221,-4.144 18.289,-2.517 27.303,0.785 3.211,1.149 6.487,2.199 9.787,3.062 34.284,9.274 55.067,-11.838 45.688,-46.614 C 187.419,13.678 182.967,7.912 176.13,4.352 115.315,-27.043 58.548,-65.979 -4.298,-93.699 c -35.061,-15.433 -71.3,-26.544 -109.61,-30.398 -5.054,-0.518 -10.084,-1.987 -14.986,-3.455 -28.348,-8.648 -34.456,11.426 -32.661,30.366 1.691,17.848 13.535,29.115 28.496,37.181 16.64,8.962 34.59,14.886 52.363,21.018 C -52.253,-29.136 -25.708,-15.458 0,0"
             style="fill:#4c432f;fill-opacity:1;fill-rule:evenodd;stroke:none"
             id="path110"
             inkscape:connector-curvature="0" /></g><g
           id="g112"
           transform="translate(1229.1348,1355.7129)"><path
             d="m 0,0 c 0.296,-11.743 -3.107,-21.436 -12.677,-29.348 -65.448,-53.948 -130.589,-108.267 -195.983,-162.296 -15.22,-12.575 -26.731,-11.79 -40.923,1.523 -30.208,28.372 -29.687,39.533 2.841,64.768 67.716,52.508 135.39,105.073 203.074,157.58 13.439,10.428 26.497,8.463 36.417,-5.449 C -1.484,18.761 0.062,9.588 0,0"
             style="fill:#4c432f;fill-opacity:1;fill-rule:evenodd;stroke:none"
             id="path114"
             inkscape:connector-curvature="0" /></g><g
           id="g116"
           transform="translate(2819.8872,2697.6685)"><path
             d="m 0,0 c 5.978,36.343 11.479,72.984 44.673,96.937 9.2,6.624 15.539,14.907 17.849,26.948 3.147,16.348 15.559,25.05 30.864,29.385 18.028,5.119 36.418,8.294 52.508,19.56 7.08,4.965 17.349,4.218 25.182,-2.422 7.653,-6.486 5.586,-14.69 3.436,-22.565 -1.262,-4.478 -3.309,-8.855 -5.61,-12.903 C 139.715,84.124 110.842,33.121 78.664,-15.904 74.911,-21.601 71.033,-27.356 66.422,-32.348 55.156,-44.531 41.876,-50.673 25.003,-44.415 8.489,-38.284 1.365,-25.676 0.053,-8.961 -0.211,-5.988 0,-2.989 0,0"
             style="fill:#4c432f;fill-opacity:1;fill-rule:evenodd;stroke:none"
             id="path118"
             inkscape:connector-curvature="0" /></g><g
           id="g120"
           transform="translate(2843.6284,2773.5083)"><path
             d="m 0,0 c 15.931,14.176 215.306,285.841 225.893,304.002 8.83,15.167 17.108,30.706 28.11,44.473 17.35,21.659 30.132,22.566 49.782,3.121 7.44,-7.387 15.145,-13.534 25.734,-15.971 8.649,-2.004 10.164,-8.2 4.452,-14.278 -10.006,-10.704 -14.203,-24.08 -19.598,-37.101 -10.641,-25.745 -28.405,-46.736 -46.583,-67.293 -18.187,-20.551 -35.538,-41.605 -50.631,-64.689 -11.68,-17.886 -55.57,-81.856 -77.71,-103.986"
             style="fill:#4c432f;fill-opacity:1;fill-rule:evenodd;stroke:none"
             id="path122"
             inkscape:connector-curvature="0" /></g><g
           id="g124"
           transform="translate(1796.8105,3179.8789)"><path
             d="m 0,0 c -2.173,-41.425 9.21,-83.99 14.933,-127.197 3.73,-28.139 5.353,-56.243 1.547,-84.514 -2.438,-17.886 -10.779,-32.259 -24.303,-43.864 -7.07,-6.068 -15.21,-8.803 -23.656,-4.023 -10.524,5.947 -18.422,14.293 -16.757,27.828 1.208,9.851 -0.021,88.591 0.539,114.006 0.436,19.635 0.723,39.184 -4.579,58.681 -4.239,15.654 -5.065,91.013 -9.569,109.879 -6.614,6.417 -3.561,13.466 0.297,19.935 3.964,6.657 -26.264,211.507 -23.52,216.902 16.778,32.862 44.22,26.831 51.871,27.721 C -17.458,317.166 -3.901,69.683 -0.965,53.992 2.213,36.906 -0.415,19.794 0,0"
             style="fill:#4c432f;fill-opacity:1;fill-rule:evenodd;stroke:none"
             id="path126"
             inkscape:connector-curvature="0" /></g><g
           id="g128"
           transform="translate(3327.5308,2316.2407)"><path
             d="M 0,0 C -1.812,18.045 -8.86,34.59 -14.31,51.649 -21.962,75.48 -15.824,84.935 8.901,88.555 13.1,89.168 17.444,89.746 21.642,89.47 57.435,87.086 93.174,84.505 128.966,81.978 121.685,48.724 101.399,26.991 69.804,15.385 47.271,7.075 23.476,4.235 0,0"
             style="fill:#4c432f;fill-opacity:1;fill-rule:evenodd;stroke:none"
             id="path130"
             inkscape:connector-curvature="0" /></g><g
           id="g132"
           transform="translate(3187.5083,2363.7871)"><path
             d="m 0,0 c 4.239,-27.339 9.168,-54.632 6.179,-82.485 -0.359,-3.339 -1.304,-6.603 -1.94,-9.905 -18.028,-5.145 -35.95,-10.804 -54.127,-15.316 -23.425,-5.791 -41.091,3.959 -49.995,26.387 -3.202,7.981 -5.089,16.275 -6.031,24.791 -1.94,16.82 5.818,28.214 22.851,28.924 23.922,1.006 44.599,10.339 65.298,20.567 C -12.083,-4.218 -5.925,-2.32 0,0"
             style="fill:#4c432f;fill-opacity:1;fill-rule:evenodd;stroke:none"
             id="path134"
             inkscape:connector-curvature="0" /></g><g
           id="g136"
           transform="translate(3342.73,1697.6221)"><path
             d="M 0,0 C -5.978,33.673 -6.19,67.313 0.317,100.96 10.788,101.273 19.648,96.842 27.036,90.165 38.675,79.735 52.188,74.754 67.473,72.528 91.808,68.94 96.417,60.106 87.036,37.207 74.097,5.586 50.153,-7.572 16.502,-1.754 11.055,-0.811 5.501,-0.551 0,0"
             style="fill:#4c432f;fill-opacity:1;fill-rule:evenodd;stroke:none"
             id="path138"
             inkscape:connector-curvature="0" /></g><g
           id="g140"
           transform="translate(3177.1851,1802.8799)"><path
             d="M 0,0 C 10.503,-14.675 13.048,-30.869 9.381,-48.373 6.413,-62.417 3.794,-76.567 1.019,-90.716 c -32.73,1.314 -49.944,15.671 -53.928,45.019 -3.477,25.728 7.99,40.981 33.778,44.383 C -12.845,-0.478 -6.391,-0.424 0,0"
             style="fill:#4c432f;fill-opacity:1;fill-rule:evenodd;stroke:none"
             id="path142"
             inkscape:connector-curvature="0" /></g><g
           id="g144"
           transform="translate(2449.0757,1412.4648)"><path
             d="M 0,0 C 1.885,12.576 8.489,20.96 21.123,24.16 20.699,10.323 12.58,3.196 0,0"
             style="fill:#fbcc3a;fill-opacity:1;fill-rule:evenodd;stroke:none"
             id="path146"
             inkscape:connector-curvature="0" /></g><g
           id="g148"
           transform="translate(2050.3872,1969.3135)"><path
             d="m 0,0 c 14.51,-1.939 22.533,-13.1 31.808,-22.453 11.636,-11.739 11.583,-11.766 20.7,2.411 18.993,29.697 18.442,62.109 9.644,93.959 -10.017,36.264 -18.4,72.411 -15.569,110.191 2.023,26.83 4.927,53.837 15.981,78.686 11.873,26.625 34.904,42.565 60.69,52.533 27.09,10.499 48.364,-7.218 46.582,-36.63 -3.295,-54.944 -8.277,-109.496 -26.877,-162.189 -14.311,-40.598 -6.71,-80.769 9.739,-119.444 7.972,-18.654 16.089,-37.308 27.249,-54.393 9.859,-15.067 21.283,-17.213 33.282,-4.144 21.673,23.635 36.523,50.731 36.269,84.048 -0.69,77.585 -1.526,155.169 -2.131,232.779 -0.18,24.801 10.981,35.57 35.199,34.785 16.578,-0.54 25.257,-8.267 23.625,-25.039 -4.132,-43.191 -1.463,-86.44 -2.299,-129.646 -1.156,-58.273 -1.421,-116.561 -2.068,-174.834 -3.539,-6.131 -7.049,-12.263 -10.566,-18.394 -10.684,2.172 -18.232,-0.605 -20.012,-12.548 l 0.15,0.1 c -21.877,0.264 -25.883,-5.295 -18.548,-25.57 -1.571,-2.624 -3.17,-5.294 -4.77,-7.918 -9.063,1.05 -16.398,-4.244 -24.474,-6.81 -56.459,-18.054 -92.698,-4.085 -115.813,50.832 -7.494,17.764 -11.214,17.818 -27.823,6.864 C 66.815,-61.441 56.439,-73.418 42.543,-80.991 28.977,-88.352 16.005,-88.563 2.831,-80.651 1.993,-53.768 -1.939,-26.99 0,0"
             style="fill:#4c432f;fill-opacity:1;fill-rule:evenodd;stroke:none"
             id="path150"
             inkscape:connector-curvature="0" /></g><g
           id="g152"
           transform="translate(1800.7417,2110.2788)"><path
             d="m 0,0 c -2.597,13.481 -3.646,27.059 -3.01,40.784 0.392,8.83 3.116,15.856 12.549,18.501 9.508,2.66 16.958,-0.589 22.204,-8.464 9.761,-14.647 15.868,-31.075 21.95,-47.462 9.339,-25.171 18.39,-50.44 28.056,-75.48 6.243,-16.188 14.615,-103.746 18.803,-128.532 4.473,-26.358 6.04,-33.593 8.193,-59.215 -52.072,2.856 -104.038,6.757 -155.805,12.941 -7.005,0.837 -16.035,2.332 -17.137,10.9 -1.282,9.878 8.182,13.991 14.595,19.339 31.053,-10.323 58.134,-2.411 81.896,18.653 9.233,8.231 13.63,19.232 10.389,31.442 -7.474,28.246 -10.113,57.319 -15.146,85.999 C 22.587,-52.39 17.202,-24.118 0,0"
             style="fill:#4c432f;fill-opacity:1;fill-rule:evenodd;stroke:none"
             id="path154"
             inkscape:connector-curvature="0" /></g><g
           id="g156"
           transform="translate(1917.2661,2296.1348)"><path
             d="m 0,0 c 5.501,0.769 10.98,1.755 16.491,2.253 6.042,0.551 10.133,-2.375 10.812,-8.437 2.766,-24.462 13.724,-46.731 18.632,-70.63 2.194,-10.653 2.618,-21.171 0.414,-31.819 C 22.999,-75.776 7.547,-39.581 0,0"
             style="fill:#4c432f;fill-opacity:1;fill-rule:evenodd;stroke:none"
             id="path158"
             inkscape:connector-curvature="0" /></g><g
           id="g160"
           transform="translate(1246.6958,1699.3818)"><path
             d="m 0,0 c 5.586,-27.097 -3.793,-50.419 -17.88,-72.793 -7.504,-11.945 -14,-24.525 -20.826,-36.863 -5.787,-10.455 -14.268,-14.182 -25.841,-11.14 -11.595,3.042 -20.552,10.065 -29.145,18.056 -44.104,41.107 -65.82,94.251 -80.86,150.796 -6.709,25.204 -12.242,50.673 -24.897,73.937 -4.982,9.147 -6.656,19.444 -3.88,29.873 2.471,9.38 17.51,166.026 18.083,225.792 0.552,59.116 -1.071,118.279 -1.738,177.405 -0.074,6.317 -1.22,12.315 -7.876,14.791 -6.867,2.581 -13.523,1.716 -19.121,-3.562 -5.394,-5.108 -8.446,-11.78 -12.113,-18.055 -37.934,-64.796 -68.438,-133.132 -98.285,-201.913 -21.725,-50.096 -51.987,-95.47 -86.571,-137.813 -9.529,-11.658 -24.408,-19.755 -24.568,-37.626 -0.009,-0.89 -2.316,-2.251 -3.756,-2.591 -10.244,-2.385 -14.346,-9.931 -16.524,-19.205 -17.515,-3.879 -25.48,-18.712 -35.555,-31.076 -15.972,-19.549 -26.529,-23.112 -48.563,-16.036 -0.133,5.082 -2.587,8.749 -6.593,11.844 -38.517,29.476 -56.45,70.795 -63.329,116.832 -19.512,130.476 -45.294,259.784 -70.106,389.301 -2.002,10.441 -9.04,16.99 -17.451,25.337 -7.245,-31.85 -14.032,-62.152 -21.055,-92.391 -24.696,-106.354 -47.779,-213.09 -65.713,-320.806 -12.039,-72.21 -27.816,-143.795 -36.263,-216.588 -2.269,-19.545 -2.581,-39.354 -3.339,-59.03 -0.317,-8.151 -0.88,-16.222 -2.544,-24.235 -9.93,-47.848 -47.976,-71.012 -95.22,-57.567 -26.2,7.466 -49.274,21.876 -73.471,33.72 -24.261,11.844 -48.129,24.419 -72.327,36.37 -7.769,3.874 -13.826,9.067 -15.739,17.557 -11.765,52.22 -24.272,104.388 -23.042,158.469 0.89,39.565 8.871,77.822 29.279,111.987 14.256,23.789 22.088,48.655 25.025,76 6.342,58.94 23.333,115.761 36.052,173.429 22.718,102.873 50.386,204.51 76.725,306.503 12.284,47.647 16.555,97.118 30.25,144.516 19.008,65.872 58.743,111.712 127.73,127.266 39.237,8.829 76.816,1.702 112.03,-16.862 23.843,-12.576 35.502,-32.635 32.804,-60.276 -1.887,-19.286 0.589,-38.559 0.906,-57.828 0.223,-7.642 -0.042,-15.331 0.759,-22.888 4.334,-41.007 20.069,-78.856 33.132,-117.425 -0.287,-25.983 4.271,-51.278 13.243,-75.475 36.291,-97.721 63.111,-198.167 87.593,-299.349 5.359,-22.194 11.23,-44.266 17.548,-69.104 83.816,109.3 130.822,233.604 179.767,356.922 19.829,18.814 34.669,40.1 34.617,68.898 12.103,4.716 18.812,14.388 23.454,25.808 1.94,4.733 3.306,9.683 4.95,14.542 14.426,42.792 44.939,64.065 89.348,66.269 20.149,0.997 40.139,-1.165 60.044,-4.325 13.916,-2.198 21.748,-9.967 24.747,-23.948 2.533,-11.754 1.072,-25.325 12.731,-33.735 0.243,-39.831 0.634,-79.656 0.655,-119.482 0.107,-108.41 0.118,-216.837 0,-325.248 -0.042,-37.811 4.41,-75.161 10.43,-112.357 C -30.47,181.58 -8.775,41.659 -1.854,10.636 -0.709,8.723 -1.155,1.938 0,0"
             style="fill:#fefefe;fill-opacity:1;fill-rule:evenodd;stroke:none"
             id="path162"
             inkscape:connector-curvature="0" /></g><g
           id="g164"
           transform="translate(3177.1851,1802.8799)"><path
             d="m 0,0 c 3.19,22.088 -1.579,44.595 3.169,66.604 1.176,5.399 2.437,10.847 4.346,16.036 7.42,19.914 5.215,29.4 -12.178,42.131 -15.517,11.372 -31.766,21.853 -47.748,32.595 -18.178,12.163 -35.941,24.776 -51.086,40.801 -12.316,13.058 -20.753,28.077 -25.946,45.236 -3.095,10.297 -1.357,15.527 10.557,16.99 35.037,4.314 70.099,4.642 105.15,1.483 7.44,-0.683 14.574,-0.169 21.59,1.585 13.577,3.392 20.02,11.32 19.344,26.254 -0.945,19.221 -3.827,38.32 -4.822,57.525 -1.76,33.752 2.405,67.696 -3.413,101.314 -1.146,6.721 -2.927,13.324 -4.4,19.964 0.635,3.301 1.581,6.565 1.939,9.904 2.989,27.853 -1.939,55.146 -6.179,82.485 0.945,8.92 3.19,17.95 2.565,26.768 -1.727,23.541 -18.6,38.989 -47.98,41.054 -35.083,2.476 -65.375,15.555 -93.717,35.153 -19.023,13.142 -37.626,26.947 -57.985,38.086 -11.617,6.381 -15.75,18.866 -22.776,28.978 -1.834,2.634 -0.839,4.653 1.969,6.184 3.01,1.611 6.805,2.962 8.511,5.57 15.148,23.354 38.316,23.333 62.47,23.461 45.194,0.238 89.561,-8.029 134.309,-11.67 51.225,-4.155 102.29,-10.313 153.495,-14.192 95.271,-7.202 190.704,-11.527 286.305,-10.403 14.128,0.175 28.246,0.621 42.343,1.388 29.74,1.638 55.454,-9.051 78.951,-25.807 11.055,-7.885 18.443,-18.903 22.269,-32.215 8.49,-29.778 -4.813,-52.969 -35.421,-57.409 -25.31,-3.705 -51.098,-4.505 -76.716,-6.434 -63.201,-4.743 -126.402,-9.406 -189.603,-14.081 -35.792,2.528 -71.532,5.109 -107.325,7.493 -4.197,0.276 -8.542,-0.302 -12.74,-0.915 -24.726,-3.62 -30.863,-13.075 -23.211,-36.906 5.449,-17.059 12.497,-33.604 14.31,-51.649 2.882,-36.444 13.099,-71.489 20.433,-107.096 5.821,-28.156 10.376,-56.402 10.324,-85.315 -0.053,-15.236 2.257,-65.274 15.041,-60.425 64.376,-1.336 96.586,4.023 172.994,1.351 28.288,-0.996 56.014,-9.379 83.16,-16.677 23.369,-6.301 46.898,-0.514 64.355,-18.198 16.768,-16.953 7.176,-70.656 -6.687,-89.863 -25.067,-34.637 -49.498,-27.249 -92.782,-27.409 -42.525,-0.153 -84.37,-8.118 -126.552,-12.261 -31.15,-3.09 -62.312,-5.66 -93.653,-2.041 -23.475,2.671 -34.583,-7.6 -33.958,-31.654 0.636,-22.692 1.887,-45.384 2.841,-68.071 -6.508,-33.646 -6.295,-67.287 -0.317,-100.96 -6.71,-17.79 -4.198,-35.453 1.155,-52.898 6.751,-22.035 16.035,-43.265 15.188,-67.261 -0.412,-11.924 10.228,-14.939 20.18,-15.332 19.703,-0.73 39.46,-0.313 59.162,-1.181 52.253,-2.279 104.527,-4.424 156.748,0.658 22.586,2.151 44.907,6.497 67.81,5.711 21.898,-0.757 43.678,-2.564 64.876,-8.224 28.925,-7.679 40.086,-25.209 34.192,-54.658 -3.593,-17.869 -0.71,-35.952 -4.112,-53.769 -4.505,-23.715 -17.192,-35.267 -41.346,-38.516 -18.028,-2.411 -35.845,0.159 -53.715,0.732 -55.442,1.833 -110.42,-3.9 -165.396,-9.641 -64.821,-6.814 -129.645,-13.836 -194.933,-6.422 -22.831,2.597 -43.817,10.615 -58.803,28.431 -16.926,20.022 -38.304,32.545 -61.495,43.181 -10.513,4.796 -21.091,9.718 -30.685,16.089 -13.704,9.067 -14.361,18.918 -3.306,30.889 4.09,4.406 8.649,8.359 12.952,12.556 18.441,18.182 23.761,39.671 13.301,63.381 -9.634,21.876 -6.442,41.738 5.638,61.049 12.815,20.466 12.391,40.302 -1.937,59.767 2.775,14.149 5.394,28.299 8.362,42.343 C 13.048,-30.869 10.503,-14.675 0,0"
             style="fill:#fefefe;fill-opacity:1;fill-rule:evenodd;stroke:none"
             id="path166"
             inkscape:connector-curvature="0" /></g><g
           id="g168"
           transform="translate(2330.3247,1745.2324)"><path
             d="m 0,0 c 8.332,35.687 -5.893,62.782 -32.38,85.21 -4.876,7.021 -5.033,14.149 -0.922,21.589 2.331,4.219 3.434,8.781 1.443,13.572 1.599,2.624 3.199,5.294 4.769,7.918 11.977,-1.786 17.605,3.401 17.35,15.506 -0.053,3.328 0.785,6.709 1.199,10.064 l -0.15,-0.1 c 8.904,0.625 18.177,0.625 20.011,12.548 3.518,6.131 7.028,12.263 10.567,18.394 16.482,13.44 22.289,32.359 24.548,52.046 6.709,58.277 12.368,116.656 11.106,175.48 -1.832,85.299 1.782,170.366 12.529,255.062 5.765,45.437 19.598,87.637 51.617,122.062 19.595,0.149 39.247,0.959 58.855,0.254 14.19,-0.524 18.601,-8.595 13.301,-21.738 -1.41,-3.525 -2.779,-7.35 -5.237,-10.138 -6.336,-7.287 -5.818,-14.494 -1.048,-22.104 -10.843,-47.817 -15.093,-96.46 -16.608,-145.262 -3.201,-103.97 3.721,-208.358 -13.208,-311.767 -1.312,-7.89 0,-15.448 8.49,-19.666 8.65,-4.282 15.666,-1.574 22.374,4.193 34.066,29.348 68.492,58.324 102.29,88.039 38.675,33.995 73.059,71.361 88.458,122.301 16.736,34.646 27.235,48.146 33.386,75.081 13.348,34.562 2.817,28.669 14.848,42.061 4.504,5.045 5.322,13.917 10.465,18.374 9.644,8.32 17.551,17.398 16.586,31.256 27.642,12.094 55.209,7.483 82.66,-0.773 26.943,-8.108 53.567,-17.516 82.597,-15.14 11.819,0.953 12.518,-8.072 10.981,-16.847 -4.219,-24.187 -12.083,-47.038 -24.42,-68.406 -13.005,-22.559 -26.912,-44.684 -34.721,-69.851 -11.745,-13.106 -20.489,-28.326 -29.87,-43.064 -33.491,-52.787 -66.241,-106.132 -116.183,-145.803 -30.494,-10.912 -52.613,-33.095 -73.937,-55.904 -22.587,-24.107 -45.28,-47.69 -74.076,-64.77 -18.899,-11.213 -18.899,-23.476 -1.495,-36.921 23.688,-18.315 47.323,-36.682 71.32,-54.578 22.64,-16.822 45.65,-33.169 71.849,-44.33 23.212,-17.509 46.275,-35.274 69.753,-52.46 21.006,-15.406 42.341,-30.446 67.387,-38.913 20.804,-24.156 47.789,-40.113 74.52,-56.461 9.847,-6.031 19.883,-11.897 29.062,-18.918 12.815,-9.751 16.609,-23.164 9.773,-37.733 -11.745,-24.891 -26.497,-48.107 -44.527,-68.914 -11.127,-12.835 -20.953,-13.937 -36.916,-6.757 -16.947,7.649 -31.488,19.074 -46.634,29.556 -21.908,15.092 -44.072,29.688 -67.346,42.602 -46.687,40.853 -93.428,81.649 -151.288,106.645 -14.171,20.648 -34.723,33.954 -55.071,47.373 -21.125,13.863 -43.552,25.734 -63.254,41.637 -9.02,7.228 -16.98,15.692 -25.842,23.079 -11.318,9.386 -21.165,5.767 -23.888,-8.85 -1.155,-6.237 -0.901,-12.793 -0.69,-19.183 2.151,-62.99 -1.102,-125.768 -6.179,-188.602 -3.403,-42.189 -8.33,-84.319 -8.383,-126.715 l 0.053,0.159 c -12.634,-3.201 -19.238,-11.584 -21.123,-24.161 -11.639,-7.441 -16.322,-20.281 -23.688,-30.969 -7.018,-10.223 -13.938,-20.282 -25.47,-25.967 -24.494,3.38 -48.894,24.711 -49.678,46.613 -0.942,25.311 -8.171,48.84 -16.035,72.369 -7.886,23.582 -11.372,47.218 -5.288,71.93 3.241,13.279 4.037,27.037 4.503,40.768 C 4.929,-105.278 -1.197,-52.719 0,0"
             style="fill:#fefefe;fill-opacity:1;fill-rule:evenodd;stroke:none"
             id="path170"
             inkscape:connector-curvature="0" /></g><g
           id="g172"
           transform="translate(1909.4868,1850.4111)"><path
             d="m 0,0 c 21.271,2.512 27.928,12.104 22.003,32.013 -5.841,19.656 -11.48,39.358 -18.676,58.643 -6.994,18.814 -24.08,80.903 -30.324,97.091 -9.666,25.04 -18.716,50.309 -28.055,75.48 -6.082,16.387 -12.189,32.815 -21.95,47.462 -5.246,7.875 -12.696,11.124 -22.204,8.464 -9.433,-2.645 -12.157,-9.672 -12.549,-18.502 -0.636,-13.725 0.413,-27.302 3.01,-40.783 -6.572,-25.162 -13.026,-50.372 -19.778,-75.496 -12.506,-46.513 -25.914,-92.851 -29.835,-141.192 -6.402,-5.348 -15.867,-9.461 -14.584,-19.339 1.102,-8.569 10.131,-10.064 17.137,-10.901 C -104.038,6.757 -52.072,2.855 0,0 m 39.193,-167.437 c -1.175,3.254 -2.342,6.498 -3.507,9.751 3.901,15.825 2.077,18.919 -11.585,19.518 -7.726,4.564 -15.273,9.514 -23.253,13.551 -9.053,4.61 -18.74,5.708 -28.575,2.3 -14.425,1.68 -28.818,3.567 -43.265,5.035 -40.795,4.137 -81.451,10.005 -122.513,11.213 -20.147,0.578 -29.856,-6.868 -35.813,-26.148 -13.873,-44.859 -27.97,-89.692 -41.071,-134.785 -9.622,-33.175 -19.702,-66.29 -23.941,-100.774 -7.781,-12.84 -17.192,-24.526 -26.541,-36.265 -9.731,-12.157 -17.891,-25.155 -19.66,-41.139 -10.875,-7.281 -17.552,-18.6 -26.381,-27.821 -7.717,-8.072 -15.146,-9.359 -24.557,-1.888 -23.18,18.337 -42.312,38.591 -42.099,70.902 0.074,11.133 -8.522,15.929 -17.584,19.65 -8.256,9.692 -8.638,20.359 -4.982,32.232 4.663,15.119 10.78,29.342 19.343,42.708 8.68,13.625 12.072,28.139 3.031,43.232 8.83,12.787 15.305,26.777 20.637,41.271 16.734,45.459 22.362,93.096 26.094,140.939 1.822,23.27 -8.892,40.403 -29.358,51.463 -2.63,1.416 -5.3,2.778 -7.802,4.398 -11.912,7.759 -22.967,16.455 -19.427,32.91 3.466,16.195 16.058,22.221 30.875,24.844 3.348,0.599 6.825,0.785 10.249,0.811 58.664,0.525 72.284,18.76 83.158,56.02 0.116,0.393 17.753,55.009 17.892,55.432 21.45,63.223 22.341,67.928 51.509,129.121 2.703,4.192 54.224,110.207 55.507,113.509 9.2,23.572 16.745,47.647 21.282,72.554 6.974,38.31 13.6,76.693 20.425,115.03 5.054,28.452 22.152,45.904 49.993,52.061 22.652,5.019 43.986,-3.46 65.406,-9.103 6.276,-1.665 7.387,-7.171 4.982,-12.513 -15.655,-34.637 -5.584,-65.968 11.828,-96.514 11.044,-19.352 22.3,-38.621 28.289,-60.344 7.547,-39.581 22.999,-75.777 46.338,-108.622 28.925,-72.751 57.849,-145.475 86.783,-218.2 -1.939,-26.99 1.994,-53.767 2.831,-80.651 -4.145,-19.73 4.971,-35.84 14.169,-51.982 6.582,-11.585 13.494,-23.244 12.848,-37.155 -2.237,-49.417 8.797,-96.317 27.323,-141.543 14.562,-35.665 31.701,-70.302 45.956,-106.094 22.534,-56.519 12.21,-107.664 -29.506,-151.998 -16.821,-17.871 -32.411,-18.242 -50.409,-1.967 -12.423,11.188 -23.795,23.45 -34.69,36.184 -19.861,23.243 -34.797,49.836 -52.253,74.728 -2.522,4.35 -5.065,8.702 -7.61,13.1 6.031,20.599 8.777,41.824 8.723,63.149 -0.094,37.572 -10.397,71.51 -39.089,97.89"
             style="fill:#fefefe;fill-opacity:1;fill-rule:evenodd;stroke:none"
             id="path174"
             inkscape:connector-curvature="0" /></g></g></g></g></svg>